<?xml version="1.0" ?><svg viewBox="0 0 64 64" xmlns="http://www.w3.org/2000/svg"><g id="Worldwide_contact_connection"><path d="M18.4011,13.5385V4.94C15.6365,5.6,13.228,8.9339,11.905,13.5385Z"/><path d="M18.4011,15.5385H11.4224a29.7893,29.7893,0,0,0-.5735,4.9854h7.5522Z"/><path d="M18.4011,22.5239H10.8489a29.6881,29.6881,0,0,0,.6445,5.3545h6.9077Z"/><path d="M20.4011,4.94v8.5981h6.4951C25.5732,8.934,23.1653,5.6,20.4011,4.94Z"/><path d="M28.9905,13.5385h6.2072a17.7229,17.7229,0,0,0-11.55-9.1947C26.0161,6.1423,27.9131,9.4079,28.9905,13.5385Z"/><path d="M29.363,27.8784h6.5581a17.6138,17.6138,0,0,0,1.1436-5.3545H29.9516A32.344,32.344,0,0,1,29.363,27.8784Z"/><path d="M18.4011,38.1083v-8.23h-6.38C13.3655,34.2891,15.7121,37.467,18.4011,38.1083Z"/><path d="M36.0559,15.5385H29.438a32.6172,32.6172,0,0,1,.5136,4.9854h7.1131A17.6127,17.6127,0,0,0,36.0559,15.5385Z"/><path d="M23.654,38.7031A17.7333,17.7333,0,0,0,35.02,29.8784h-6.129C27.8,33.832,25.9487,36.9575,23.654,38.7031Z"/><path d="M9.3633,15.5385H2.7453a17.6194,17.6194,0,0,0-1.0085,4.9854H8.85A32.617,32.617,0,0,1,9.3633,15.5385Z"/><path d="M26.78,29.8784H20.4011v8.23C23.09,37.467,25.436,34.289,26.78,29.8784Z"/><path d="M15.1477,38.7031c-2.2949-1.7456-4.146-4.8711-5.2378-8.8247H3.7812A17.7331,17.7331,0,0,0,15.1477,38.7031Z"/><path d="M8.85,22.5239H1.7368A17.6138,17.6138,0,0,0,2.88,27.8784H9.4382A32.3654,32.3654,0,0,1,8.85,22.5239Z"/><path d="M15.1536,4.3437a17.7235,17.7235,0,0,0-11.55,9.1948H9.811C10.8884,9.4079,12.7851,6.1423,15.1536,4.3437Z"/><path d="M27.9524,22.5239H20.4011v5.3545h6.9067A29.688,29.688,0,0,0,27.9524,22.5239Z"/><path d="M27.3789,15.5385H20.4011v4.9854h7.5513A29.8,29.8,0,0,0,27.3789,15.5385Z"/><path d="M28.1208,56.6713H19.157A4.4065,4.4065,0,0,1,14.7556,52.27V48.4008L16.31,49.7846a1.75,1.75,0,1,0,2.3262-2.6152l-4.4678-3.9766a1.75,1.75,0,0,0-2.3262,0L7.3747,47.1694a1.75,1.75,0,0,0,2.3262,2.6152l1.5547-1.3838V52.27a7.9108,7.9108,0,0,0,7.9014,7.9013h8.9638a1.75,1.75,0,1,0,0-3.5Z"/><path d="M37.7185,10.7153h8.9648a4.4057,4.4057,0,0,1,4.4,4.4013V19L49.531,17.6176a1.75,1.75,0,0,0-2.3281,2.6133L51.67,24.2075a1.75,1.75,0,0,0,2.3271.0009l4.4678-3.9765a1.75,1.75,0,0,0-2.3262-2.6153L54.5837,19V15.1166a7.91,7.91,0,0,0-7.9-7.9013H37.7185a1.75,1.75,0,0,0,0,3.5Z"/><path d="M60.5559,49.4252a12.1763,12.1763,0,0,0-6.55-6.4795,1.1893,1.1893,0,0,1-.7192-1.0932,1.2118,1.2118,0,0,1,.3767-.89c.0735-.07.1438-.1392.1965-.1946a7.44,7.44,0,0,0,.98-1.2878A7.4,7.4,0,0,0,47.1,28.4086a7.2307,7.2307,0,0,0-5.8364,5.67,7.4,7.4,0,0,0,2.0405,6.8688,1.2549,1.2549,0,0,1,.3914.8912v.0061a1.19,1.19,0,0,1-.72,1.1045,12.18,12.18,0,0,0-6.5476,6.4883,15.493,15.493,0,0,0-1.2912,6.3809V57.4a2.5813,2.5813,0,0,0,2.5812,2.5814h21.55A2.5815,2.5815,0,0,0,61.8494,57.4v-1.597A15.4585,15.4585,0,0,0,60.5559,49.4252Z"/></g></svg>