<?xml version="1.0" ?><svg viewBox="0 0 64 64" xmlns="http://www.w3.org/2000/svg"><g id="Business_contact_connection"><path d="M22.3176,16.8249a1.1473,1.1473,0,0,1-.6933-1.0535,1.17,1.17,0,0,1,.3632-.8576c.0708-.0675.1387-.1341.1895-.1875a7.18,7.18,0,0,0,.9448-1.241A7.1311,7.1311,0,0,0,15.6626,2.8159,6.9679,6.9679,0,0,0,10.0383,8.28a7.1309,7.1309,0,0,0,1.9663,6.6192,1.21,1.21,0,0,1,.3775.8589v.0058a1.1482,1.1482,0,0,1-.6936,1.0645,11.7363,11.7363,0,0,0-6.31,6.2525,14.9331,14.9331,0,0,0-1.2441,6.1488v1.5244a2.4877,2.4877,0,0,0,2.4876,2.4876H27.3887a2.4877,2.4877,0,0,0,2.4875-2.4876v-1.539A14.8955,14.8955,0,0,0,28.63,23.069,11.7311,11.7311,0,0,0,22.3176,16.8249Z"/><path d="M59.4585,48.5819a11.7324,11.7324,0,0,0-6.312-6.2441,1.1471,1.1471,0,0,1-.6934-1.0537,1.17,1.17,0,0,1,.363-.8574c.0711-.0676.1387-.134.19-.1876a7.1718,7.1718,0,0,0,.9451-1.2411,7.1309,7.1309,0,0,0-7.4593-10.6692,6.9681,6.9681,0,0,0-5.6242,5.4636,7.1311,7.1311,0,0,0,1.9663,6.6194,1.2092,1.2092,0,0,1,.3772.8587v.0061a1.1473,1.1473,0,0,1-.6934,1.0643,11.7365,11.7365,0,0,0-6.31,6.2525,14.934,14.934,0,0,0-1.2444,6.149v1.5243a2.4876,2.4876,0,0,0,2.4878,2.4875H58.2175a2.4875,2.4875,0,0,0,2.4876-2.4875v-1.539A14.8945,14.8945,0,0,0,59.4585,48.5819Z"/><path d="M28.1208,52.4633H19.157a4.4065,4.4065,0,0,1-4.4014-4.4013V44.1928L16.31,45.5766a1.75,1.75,0,0,0,2.3262-2.6152l-4.4678-3.9766a1.75,1.75,0,0,0-2.3262,0L7.3747,42.9614a1.75,1.75,0,0,0,2.3262,2.6152l1.5547-1.3838V48.062a7.9108,7.9108,0,0,0,7.9014,7.9013h8.9638a1.75,1.75,0,0,0,0-3.5Z"/><path d="M46.0837,15.1166V19L44.531,17.6176a1.75,1.75,0,0,0-2.3281,2.6133L46.67,24.2075a1.75,1.75,0,0,0,2.3271.0009l4.4678-3.9765a1.75,1.75,0,0,0-2.3262-2.6153L49.5837,19V15.1166a7.91,7.91,0,0,0-7.9-7.9013H32.7185a1.75,1.75,0,0,0,0,3.5h8.9648A4.4057,4.4057,0,0,1,46.0837,15.1166Z"/></g></svg>