<svg viewBox="-30 -40 180 180" xml:space="preserve"
                    height="90%" width="90%" xmlns="http://www.w3.org/2000/svg">
                    <path
                        d="M112 0H16C7.164 0 0 7.164 0 16v64c0 8.836 7.164 16 16 16h24l32 32V96h40c8.836 0 16-7.164 16-16V16c0-8.836-7.164-16-16-16zm8 80c0 4.414-3.59 8-8 8H64v20.688L43.313 88H16c-4.41 0-8-3.586-8-8V16c0-4.414 3.59-8 8-8h96c4.41 0 8 3.586 8 8v64z"
                        fill="#050505" class="fill-546e7a"></path>
                    <path d="M24 32h80v-8H24v8zM24 48h80v-8H24v8zM24 64h48v-8H24v8z" fill="#050505" class="fill-b0bec5">
                    </path>
            </svg>
          